<?xml version="1.0" encoding="UTF-8"?><svg id="Capa_1" xmlns="http://www.w3.org/2000/svg" viewBox="0 0 436.1 82.4"><defs><style>.cls-1{fill:#000;stroke-width:0px;}</style></defs><path class="cls-1" d="M6.23,61.6c-1.22-1.15-1.84-2.57-1.84-4.25,0-1.92.7-3.49,2.09-4.72,1.39-1.22,3.12-1.84,5.18-1.84,1.87,0,3.38.6,4.54,1.8,1.15,1.2,1.73,2.62,1.73,4.25,0,2.02-.67,3.6-2.02,4.75-1.34,1.15-3.14,1.73-5.4,1.73-1.63,0-3.06-.58-4.28-1.73Z"/><path class="cls-1" d="M30.38,15.3l-5.4-1.01v-5.04h11.38c1.63,0,3.79-.1,6.48-.29.58-.05,1.3-.1,2.16-.14.86-.05,1.87-.07,3.02-.07,5.23,0,9.34.48,12.31,1.44,2.98.96,5.05,2.33,6.23,4.1,1.18,1.78,1.76,4.01,1.76,6.7,0,3.6-1.12,6.58-3.35,8.93-2.23,2.35-5.08,3.77-8.53,4.25,4.8,0,8.58,1.08,11.34,3.24,2.76,2.16,4.14,5.21,4.14,9.14,0,5.14-1.76,9.19-5.29,12.17-3.53,2.98-9.52,4.46-17.96,4.46-1.34,0-2.64-.04-3.89-.11-1.25-.07-2.14-.11-2.66-.11-1.73-.14-3.6-.22-5.62-.22h-11.66v-4.75l5.54-.79V15.3ZM48.38,32.51c2.64,0,4.58-.9,5.83-2.7,1.25-1.8,1.87-4.33,1.87-7.6,0-3.02-.67-5.23-2.02-6.62-1.34-1.39-3.53-2.09-6.55-2.09-.72,0-1.56.04-2.52.11-.96.07-1.78.16-2.45.25v18.5c.86.1,2.81.14,5.83.14ZM48.24,58.21c3.55,0,6.13-.94,7.74-2.81,1.61-1.87,2.41-4.58,2.41-8.14,0-3.36-.74-5.76-2.23-7.2-1.49-1.44-3.84-2.16-7.06-2.16-2.64,0-4.82.05-6.55.14v19.58c.96.38,2.85.58,5.69.58Z"/><path class="cls-1" d="M105.77,62.35c-.77-.74-1.15-1.84-1.15-3.28v-1.58c-1.15,1.58-2.88,2.99-5.18,4.21s-4.63,1.84-6.98,1.84c-4.71,0-8.05-1.16-10.04-3.49-1.99-2.33-2.99-6.23-2.99-11.7v-20.02l-3.38-.94v-4.61l13.54-.94h.07l1.58,1.01v25.78c0,3.12.38,5.29,1.15,6.52.77,1.22,2.14,1.84,4.1,1.84,2.69,0,4.94-.91,6.77-2.74v-25.92l-4.46-1.08v-4.46l14.26-.94h.22l1.73,1.01v34.92h3.82v4.61c-1.63.34-3.13.6-4.5.79-1.37.19-2.96.29-4.79.29-1.73,0-2.98-.37-3.74-1.12Z"/><path class="cls-1" d="M127.08,58.57c-2.88-3.31-4.32-8.28-4.32-14.9,0-3.98.83-7.64,2.48-10.98,1.66-3.34,4.1-6,7.34-7.99,3.24-1.99,7.16-2.99,11.77-2.99,1.39,0,2.83.17,4.32.5v-11.45l-6.91-1.01v-4.61l15.91-1.44h.36l2.16,1.73v52.49h3.74v4.61c-3.7.72-6.77,1.08-9.22,1.08-1.68,0-2.89-.28-3.64-.83-.74-.55-1.12-1.62-1.12-3.2v-1.8c-1.15,1.68-2.81,3.06-4.97,4.14s-4.39,1.62-6.7,1.62c-4.61,0-8.35-1.66-11.23-4.97ZM146.19,56.23c1.03-.55,1.86-1.21,2.48-1.98v-26.06c-.34-.43-.95-.79-1.84-1.08-.89-.29-1.84-.43-2.84-.43-2.69,0-4.82,1.28-6.41,3.85-1.58,2.57-2.38,6.76-2.38,12.56,0,4.75.67,8.27,2.02,10.55,1.34,2.28,3.14,3.42,5.4,3.42,1.34,0,2.53-.28,3.56-.83Z"/><path class="cls-1" d="M172.11,79.09c-2.95-2.06-4.43-4.82-4.43-8.28,0-1.92.65-3.74,1.94-5.47s2.93-3.02,4.9-3.89c-2.26-1.3-3.38-3.36-3.38-6.19,0-1.54.53-3.04,1.58-4.5,1.06-1.46,2.47-2.58,4.25-3.35-5.33-1.97-7.99-6.05-7.99-12.24,0-2.74.82-5.12,2.45-7.16,1.63-2.04,3.84-3.6,6.62-4.68,2.78-1.08,5.86-1.62,9.22-1.62,6,0,10.39,1.1,13.18,3.31.67-.82,1.73-1.6,3.17-2.34,1.44-.74,2.93-1.12,4.46-1.12h2.59v8.78h-7.13c.48,1.34.72,2.71.72,4.1,0,4.42-1.56,7.92-4.68,10.51-3.12,2.59-7.56,3.89-13.32,3.89-2.35,0-4.3-.17-5.83-.5-.29.58-.52,1.18-.68,1.8-.17.62-.25,1.13-.25,1.51,0,1.49.55,2.51,1.66,3.06,1.1.55,3.12.83,6.05.83h7.42c10.13,0,15.19,3.62,15.19,10.87,0,3.17-1.1,5.95-3.31,8.35-2.21,2.4-5.1,4.24-8.68,5.51-3.58,1.27-7.36,1.91-11.34,1.91-6.62,0-11.41-1.03-14.36-3.1ZM194.61,74.7c1.87-1.39,2.81-3.36,2.81-5.9,0-2.02-.5-3.44-1.51-4.28-1.01-.84-2.78-1.26-5.33-1.26h-7.34c-.77,0-1.63-.05-2.59-.14-.91,1.49-1.37,3.34-1.37,5.54,0,5.42,2.86,8.14,8.57,8.14,2.64,0,4.9-.7,6.77-2.09ZM191.34,41.69c.89-1.51,1.33-3.68,1.33-6.52,0-3.07-.46-5.3-1.37-6.7-.91-1.39-2.38-2.09-4.39-2.09-4.08,0-6.12,2.83-6.12,8.5,0,6.05,2.06,9.07,6.19,9.07,2.02,0,3.47-.76,4.36-2.27Z"/><path class="cls-1" d="M218.09,57.96c-3.17-3.72-4.75-8.79-4.75-15.23,0-4.37.82-8.14,2.45-11.3,1.63-3.17,3.92-5.58,6.88-7.24,2.95-1.66,6.42-2.48,10.4-2.48,5.04,0,8.89,1.27,11.56,3.82,2.66,2.54,4.04,6.15,4.14,10.8,0,3.07-.22,5.54-.65,7.42h-22.54c.24,4.08,1.23,7.19,2.99,9.32,1.75,2.14,4.21,3.2,7.38,3.2,1.78,0,3.64-.3,5.58-.9,1.94-.6,3.52-1.28,4.72-2.05l2.02,4.39c-1.25,1.39-3.37,2.71-6.37,3.96-3,1.25-6.06,1.87-9.18,1.87-6.58,0-11.45-1.86-14.62-5.58ZM237.31,38.99l.07-3.02c0-3.02-.41-5.33-1.22-6.91-.82-1.58-2.21-2.38-4.18-2.38s-3.58.88-4.68,2.63c-1.1,1.75-1.7,4.98-1.8,9.68h11.81Z"/><path class="cls-1" d="M259.16,61.2c-1.51-1.46-2.27-3.73-2.27-6.8v-25.63h-4.39v-4.18l1.44-.58c1.15-.38,2.16-.79,3.02-1.22.96-.91,1.73-2.11,2.3-3.6.72-1.73,1.51-4.15,2.38-7.27h6.7l.43,10.8h10.3v6.05h-10.15v19.08c0,2.64.07,4.49.21,5.54.14,1.06.42,1.74.83,2.05.41.31,1.16.47,2.27.47,2.25,0,4.39-.38,6.41-1.15l1.51,4.54c-1.34,1.1-3.34,2.06-5.98,2.88-2.64.82-5.3,1.22-7.99,1.22-3.17,0-5.51-.73-7.02-2.2Z"/><path class="cls-1" d="M319.46,52.56c-1.68,3.38-4.07,6.06-7.16,8.03-3.1,1.97-6.64,2.95-10.62,2.95-1.34,0-2.76-.11-4.25-.32-1.49-.22-2.71-.49-3.67-.83l.14,6.12v7.78l7.99.72v3.17h-19.3v-3.17l5.54-.72V27.54l-5.62-1.22v-3.24l9.22-1.15h.14l1.29,1.15v4.39c1.54-1.58,3.41-2.94,5.62-4.07,2.21-1.13,4.68-1.69,7.42-1.69s5.38.7,7.78,2.09c2.4,1.39,4.33,3.55,5.8,6.48,1.46,2.93,2.2,6.6,2.2,11.02,0,4.13-.84,7.88-2.52,11.27ZM298.08,27.4c-1.78.86-3.17,1.82-4.18,2.88v27.43c.38.62,1.36,1.19,2.92,1.69,1.56.5,3.28.76,5.15.76,4.13,0,7.45-1.52,9.97-4.57,2.52-3.05,3.78-7.55,3.78-13.5,0-5.33-1.12-9.32-3.35-11.99s-5.08-4-8.53-4c-2.06,0-3.98.43-5.76,1.3Z"/><path class="cls-1" d="M334.44,8.31l-6.12-.65v-2.66l10.51-1.22h.07l1.37.94v54.43l6.77.5v3.1h-18.94v-3.1l6.34-.58V8.31Z"/><path class="cls-1" d="M359.56,42.12c4.61-2.09,10.34-3.2,17.21-3.35v-2.23c0-2.45-.25-4.38-.76-5.8-.5-1.42-1.38-2.45-2.63-3.1-1.25-.65-3-.97-5.26-.97-2.45,0-4.67.37-6.66,1.12-1.99.74-3.92,1.65-5.8,2.7l-1.58-3.17c.53-.48,1.63-1.15,3.31-2.02,1.68-.86,3.6-1.63,5.76-2.3,2.16-.67,4.25-1.01,6.26-1.01,3.26,0,5.84.46,7.74,1.37,1.89.91,3.26,2.38,4.1,4.39.84,2.02,1.26,4.73,1.26,8.14v23.76h4.46v2.66c-2.64.72-4.87,1.08-6.7,1.08-1.15,0-1.94-.18-2.38-.54s-.65-1.19-.65-2.48v-2.66c-1.73,1.54-3.61,2.89-5.65,4.07-2.04,1.18-4.36,1.76-6.95,1.76-3.46,0-6.33-.96-8.6-2.88-2.28-1.92-3.42-4.73-3.42-8.42,0-4.66,2.3-8.03,6.91-10.12ZM371.66,58c1.87-.86,3.57-1.9,5.11-3.1v-12.74c-5.81.05-10.21.91-13.21,2.59-3,1.68-4.5,3.94-4.5,6.77s.7,4.72,2.09,5.94c1.39,1.22,3.29,1.84,5.69,1.84,1.34,0,2.95-.43,4.82-1.3Z"/><path class="cls-1" d="M396.86,27.54l-5.54-1.22v-3.24l9.14-1.15h.22l1.37,1.15v3.17l-.07,1.8c1.78-1.54,4.13-2.95,7.06-4.25,2.93-1.3,5.64-1.94,8.14-1.94,3.07,0,5.44.59,7.09,1.76,1.66,1.18,2.81,2.98,3.46,5.4.65,2.42.97,5.68.97,9.76v20.38l5.4.5v3.1h-16.06v-3.1l4.82-.5v-20.45c0-3.02-.21-5.4-.61-7.13-.41-1.73-1.2-3.04-2.38-3.92-1.18-.89-2.89-1.33-5.15-1.33-1.92,0-4,.48-6.23,1.44-2.23.96-4.16,2.09-5.79,3.38v27.94l5.26.58v3.1h-15.91v-3.1l4.82-.58v-31.54Z"/></svg>