<?xml version="1.0" encoding="UTF-8"?><svg id="Capa_1" xmlns="http://www.w3.org/2000/svg" viewBox="0 0 16 16"><defs><style>.cls-1{fill:#000;stroke-width:0px;}</style></defs><path class="cls-1" d="M.84,10.33c-.16-.15-.25-.34-.25-.57,0-.26.09-.47.28-.63.19-.17.42-.25.7-.25.25,0,.46.08.61.24.15.16.23.35.23.57,0,.27-.09.48-.27.64-.18.16-.42.23-.73.23-.22,0-.41-.08-.58-.23Z"/><path class="cls-1" d="M4.09,4.1l-.73-.14v-.68h1.53c.22,0,.51-.01.87-.04.08,0,.17-.01.29-.02s.25,0,.41,0c.7,0,1.26.06,1.66.19.4.13.68.31.84.55.16.24.24.54.24.9,0,.48-.15.88-.45,1.2-.3.32-.68.51-1.15.57.65,0,1.15.15,1.53.44.37.29.56.7.56,1.23,0,.69-.24,1.24-.71,1.64-.47.4-1.28.6-2.42.6-.18,0-.36,0-.52-.01-.17,0-.29-.01-.36-.01-.23-.02-.48-.03-.76-.03h-1.57v-.64l.75-.11v-5.64ZM6.51,6.42c.36,0,.62-.12.78-.36.17-.24.25-.58.25-1.02,0-.41-.09-.7-.27-.89-.18-.19-.47-.28-.88-.28-.1,0-.21,0-.34.01-.13,0-.24.02-.33.03v2.49c.12.01.38.02.78.02ZM6.49,9.88c.48,0,.82-.13,1.04-.38.22-.25.32-.62.32-1.09,0-.45-.1-.77-.3-.97-.2-.19-.52-.29-.95-.29-.36,0-.65,0-.88.02v2.63c.13.05.38.08.77.08Z"/><path class="cls-1" d="M15.21,9.12c-.23.46-.55.81-.96,1.08-.42.27-.89.4-1.43.4-.18,0-.37-.01-.57-.04-.2-.03-.36-.07-.49-.11l.02.82v1.05l1.08.1v.43h-2.6v-.43l.75-.1v-6.56l-.75-.17v-.44l1.24-.15h.02l.17.15v.59c.21-.21.46-.4.76-.55.3-.15.63-.23,1-.23s.72.09,1.05.28c.32.19.58.48.78.87.2.39.29.89.29,1.48,0,.56-.11,1.06-.34,1.52ZM12.34,5.73c-.24.12-.43.25-.56.39v3.69c.05.08.18.16.39.23.21.07.44.1.69.1.56,0,1-.21,1.34-.62s.51-1.01.51-1.82c0-.72-.15-1.25-.45-1.61-.3-.36-.68-.54-1.15-.54-.28,0-.54.06-.77.17Z"/></svg>