<?xml version="1.0" encoding="UTF-8"?><svg id="Capa_1" xmlns="http://www.w3.org/2000/svg" viewBox="0 0 16 16"><defs><style>.cls-1{fill:#000;}.cls-1,.cls-2{stroke-width:0px;}.cls-2{fill:#f2f2f2;}</style></defs><rect class="cls-2" width="16" height="16" rx="2.44" ry="2.44"/><path class="cls-1" d="M1.29,10.5c-.15-.15-.23-.32-.23-.54,0-.24.09-.44.26-.59.18-.15.39-.23.65-.23.24,0,.43.08.57.23.15.15.22.33.22.54,0,.25-.08.45-.25.6s-.4.22-.68.22c-.21,0-.39-.07-.54-.22Z"/><path class="cls-1" d="M4.33,4.67l-.68-.13v-.64h1.44c.21,0,.48-.01.82-.04.07,0,.16-.01.27-.02.11,0,.24,0,.38,0,.66,0,1.18.06,1.55.18.38.12.64.29.79.52.15.22.22.51.22.84,0,.45-.14.83-.42,1.13-.28.3-.64.48-1.08.54.61,0,1.08.14,1.43.41.35.27.52.66.52,1.15,0,.65-.22,1.16-.67,1.53-.45.38-1.2.56-2.27.56-.17,0-.33,0-.49-.01-.16,0-.27-.01-.34-.01-.22-.02-.45-.03-.71-.03h-1.47v-.6l.7-.1v-5.28ZM6.6,6.84c.33,0,.58-.11.74-.34.16-.23.24-.55.24-.96,0-.38-.08-.66-.25-.84-.17-.18-.44-.26-.83-.26-.09,0-.2,0-.32.01-.12,0-.22.02-.31.03v2.33c.11.01.35.02.74.02ZM6.58,10.08c.45,0,.77-.12.98-.35.2-.24.3-.58.3-1.03,0-.42-.09-.73-.28-.91-.19-.18-.48-.27-.89-.27-.33,0-.61,0-.83.02v2.47c.12.05.36.07.72.07Z"/><path class="cls-1" d="M14.76,9.37c-.21.43-.51.76-.9,1.01s-.84.37-1.34.37c-.17,0-.35-.01-.54-.04-.19-.03-.34-.06-.46-.1l.02.77v.98l1.01.09v.4h-2.43v-.4l.7-.09v-6.15l-.71-.15v-.41l1.16-.15h.02l.16.15v.55c.19-.2.43-.37.71-.51s.59-.21.94-.21.68.09.98.26c.3.18.55.45.73.82s.28.83.28,1.39c0,.52-.11.99-.32,1.42ZM12.07,6.19c-.22.11-.4.23-.53.36v3.46c.05.08.17.15.37.21.2.06.41.09.65.09.52,0,.94-.19,1.26-.58.32-.38.48-.95.48-1.7,0-.67-.14-1.18-.42-1.51-.28-.34-.64-.5-1.08-.5-.26,0-.5.05-.73.16Z"/></svg>